<svg width="27" height="32" viewBox="0 0 27 32" fill="none" xmlns="http://www.w3.org/2000/svg">
<path d="M20.25 21.3333C23.9779 21.3333 27 18.9455 27 16C27 13.0544 23.9779 10.6666 20.25 10.6666C16.5221 10.6666 13.5 13.0544 13.5 16C13.5 18.9455 16.5221 21.3333 20.25 21.3333Z" fill="#19BCFE"/>
<path fill-rule="evenodd" clip-rule="evenodd" d="M6.75 32C8.54021 32 10.2571 31.4381 11.523 30.4379C12.7888 29.4377 13.5 28.0812 13.5 26.6667V21.3334H6.75C4.95979 21.3334 3.2429 21.8953 1.97703 22.8955C0.711159 23.8957 0 25.2522 0 26.6667C0 28.0812 0.711159 29.4377 1.97703 30.4379C3.2429 31.4381 4.95979 32 6.75 32Z" fill="#09CF83"/>
<path fill-rule="evenodd" clip-rule="evenodd" d="M6.75 21.3333H13.5V10.6666H6.75C4.95979 10.6666 3.2429 11.2285 1.97703 12.2287C0.711159 13.2289 0 14.5855 0 16C0 17.4144 0.711159 18.771 1.97703 19.7712C3.2429 20.7714 4.95979 21.3333 6.75 21.3333Z" fill="#A259FF"/>
<path fill-rule="evenodd" clip-rule="evenodd" d="M6.75 10.6667H13.5V0H6.75C4.95979 0 3.2429 0.561903 1.97703 1.5621C0.711159 2.56229 0 3.91885 0 5.33333C0 6.74782 0.711159 8.10438 1.97703 9.10457C3.2429 10.1048 4.95979 10.6667 6.75 10.6667Z" fill="#F24E1E"/>
<path fill-rule="evenodd" clip-rule="evenodd" d="M20.25 10.6667H13.5V0H20.25C22.0402 0 23.7571 0.561903 25.023 1.5621C26.2888 2.56229 27 3.91885 27 5.33333C27 6.74782 26.2888 8.10438 25.023 9.10457C23.7571 10.1048 22.0402 10.6667 20.25 10.6667Z" fill="#FF7262"/>
</svg>
