<svg width="24" height="24" viewBox="0 0 24 24" fill="none" xmlns="http://www.w3.org/2000/svg">
<path d="M0.704348 12.1912L0.622412 12.1518C0.441494 12.0489 0.295574 11.8935 0.203712 11.7059C0.0720599 11.4755 0.00187906 11.2146 0 10.9488L0.0195443 10.8186C0.0195443 10.6172 0.0706604 10.4363 0.160865 10.2629L0.242801 10.113C0.28189 10.0305 0.340523 9.95931 0.391639 9.89193C0.419414 9.85852 0.438605 9.81874 0.447518 9.77609C0.456432 9.73345 0.454796 9.68925 0.442755 9.6474L0.391639 9.48538C0.330674 9.28997 0.297767 9.08679 0.293917 8.882L0.262345 8.76011C0.262345 8.53526 0.320978 8.31419 0.462299 8.15294L0.563779 8.02272C0.63444 7.92051 0.744189 7.86071 0.865213 7.82134C0.962935 7.78954 1.0336 7.68734 1.04562 7.56923L1.06517 7.22628C1.06517 6.95449 1.19446 6.70163 1.39441 6.51614L1.63722 6.33445C1.68457 6.28675 1.73494 6.23603 1.77403 6.15275C1.82514 6.0937 1.83642 6.01042 1.82514 5.95137C1.8056 5.85295 1.82514 5.82115 1.87626 5.80904C2.03712 5.87188 2.1386 5.85219 2.20926 5.76967L2.33856 5.60009L2.69862 5.1943C2.75091 5.13925 2.78615 5.07006 2.80004 4.99517C2.81392 4.92028 2.80585 4.84295 2.7768 4.77261L2.65954 4.50839C2.63999 4.44934 2.65954 4.37817 2.71065 4.35849C2.83994 4.35849 2.93015 4.40618 2.96924 4.4887L3.00833 4.55987C3.07072 4.68176 3.21204 4.74157 3.30976 4.69008C3.49287 4.62335 3.68633 4.59002 3.88106 4.59167H4.20204C4.42153 4.59167 4.60119 4.43798 4.64479 4.20556C4.68388 3.92544 4.7816 3.70059 4.92292 3.55069C5.07552 3.37732 5.2439 3.2471 5.44385 3.1449C5.7062 3.00711 5.86706 2.80195 5.91743 2.54151C5.98809 2.21824 6.15647 1.98582 6.38724 1.83592L7.15098 1.40212L7.37048 1.26812C7.49977 1.18938 7.62079 1.08642 7.72302 0.96453L7.92298 0.723781C8.00884 0.627354 8.12017 0.55751 8.24396 0.522399C8.34168 0.490602 8.483 0.470918 8.60402 0.483032L9.00318 0.510286C9.20313 0.510286 9.36325 0.561767 9.52411 0.632175L9.62559 0.683656C9.72707 0.723024 9.82555 0.70334 9.87591 0.632175L9.96611 0.580694L10.3968 0.127207C10.441 0.0790443 10.4963 0.0426879 10.5578 0.0214107C10.6194 0.000133555 10.6852 -0.0053964 10.7494 0.00531865C10.8787 0.0250025 11.008 0.0764835 11.129 0.139321C11.3094 0.23774 11.4583 0.277108 11.6304 0.277108H11.7319C11.9514 0.277108 12.1701 0.308905 12.3934 0.359629L12.5422 0.398996C12.6153 0.417076 12.692 0.413234 12.7629 0.387944C12.8338 0.362654 12.8959 0.317021 12.9414 0.256667C12.9484 0.244866 12.958 0.234806 12.9694 0.227221C12.9809 0.219637 12.9938 0.214721 13.0074 0.212834C13.0209 0.210947 13.0347 0.212136 13.0477 0.216314C13.0608 0.220493 13.0727 0.227555 13.0827 0.236983C13.1143 0.256667 13.1218 0.276351 13.1338 0.308148C13.1533 0.509529 13.2751 0.663215 13.4352 0.710153L13.5961 0.761634C13.7645 0.813115 13.9171 0.923648 14.0148 1.06522C14.1163 1.21512 14.2381 1.36881 14.3749 1.46723L14.4764 1.56943C14.5261 1.61805 14.586 1.65494 14.6516 1.67746C14.7173 1.69997 14.7871 1.70755 14.856 1.69965H15.4468C15.6896 1.69965 15.9204 1.7428 16.1519 1.84198C16.3714 1.94418 16.6022 1.96387 16.8096 1.88134C17.0329 1.81397 17.2637 1.78293 17.4944 1.81397L17.9252 1.88134C18.1251 1.90481 18.3243 2.00323 18.4461 2.15768L18.4972 2.20537C18.5949 2.30758 18.6972 2.43779 18.7949 2.58012C18.8275 2.6422 18.8766 2.69392 18.9368 2.72948C18.9969 2.76505 19.0657 2.78306 19.1354 2.7815H19.7578C19.9104 2.7815 20.0593 2.8133 20.181 2.88371C20.3103 2.98213 20.4201 3.08509 20.5216 3.1873L20.6193 3.31751C20.7403 3.45984 20.7997 3.64911 20.7914 3.85352C20.7914 4.01553 20.9125 4.15332 21.0696 4.15332L21.2733 4.17679C21.4146 4.17679 21.5319 4.27521 21.6025 4.40543L21.704 4.61059L21.9626 5.1943C22.0003 5.28381 22.015 5.38144 22.0054 5.4782C22.0054 5.57662 22.0325 5.65989 22.1032 5.69926L22.2046 5.77043C22.2693 5.81917 22.3201 5.88426 22.3518 5.95911C22.3834 6.03396 22.3949 6.1159 22.385 6.19666L22.3144 6.66983L22.2948 6.87121C22.2866 6.92807 22.2935 6.98611 22.3147 7.03943C22.336 7.09275 22.3709 7.13945 22.4159 7.1748C22.5647 7.27322 22.6354 7.40722 22.6429 7.55712V7.7585C22.6429 7.86071 22.6233 7.98335 22.5452 8.06209C22.4783 8.14886 22.4425 8.25585 22.4437 8.36567L22.4753 8.59809C22.4753 8.76011 22.573 8.90168 22.6752 9.0001C22.7419 9.05117 22.7978 9.1152 22.8395 9.18842C22.8812 9.26163 22.9079 9.34254 22.918 9.42633C22.9571 9.67844 22.9654 9.87982 22.9654 10.0812V10.3136C22.9654 10.3961 22.9654 10.4756 22.9969 10.5544C23.0193 10.6285 23.0646 10.6935 23.1262 10.7399L23.3262 10.8898C23.5299 11.02 23.6705 11.1933 23.7494 11.4258C23.8509 11.6468 23.8787 11.8792 23.8787 12.1117V12.1904C23.8787 12.3721 23.8591 12.5652 23.8005 12.7347C23.7498 12.901 23.7593 13.0799 23.8276 13.2397C23.9095 13.382 23.9606 13.5433 23.9802 13.7167C24.0193 13.918 23.9997 14.1187 23.9291 14.2807L23.9095 14.3518C23.8574 14.4756 23.7786 14.586 23.6787 14.6751C23.5773 14.7773 23.4788 14.8371 23.4201 14.9075C23.3578 14.9666 23.3187 15.0696 23.3495 15.1596L23.3765 15.302C23.4277 15.5034 23.4277 15.704 23.3765 15.8857V15.9682C23.3375 16.1181 23.2788 16.2483 23.2157 16.3702C23.1481 16.4986 23.0446 16.6041 22.918 16.6738L22.7654 16.7722C22.7285 16.7968 22.6981 16.8302 22.677 16.8694C22.6559 16.9086 22.6447 16.9525 22.6444 16.9971C22.6451 17.0931 22.6103 17.1859 22.5467 17.2575L22.3941 17.4627C22.2963 17.5929 22.1671 17.7034 22.0257 17.7625C21.8986 17.8517 21.7805 17.9534 21.6732 18.066C21.5726 18.1844 21.4979 18.3226 21.4537 18.4718C21.44 18.5506 21.399 18.622 21.3381 18.6733C21.2771 18.7246 21.2001 18.7524 21.1207 18.752H20.5802C20.4389 18.752 20.3103 18.8542 20.251 18.9768C20.1944 19.1122 20.1165 19.2374 20.0202 19.3478C19.9235 19.4498 19.8535 19.5744 19.8165 19.7104C19.7969 19.8323 19.6992 19.9156 19.597 19.8724C19.5404 19.8464 19.4763 19.8424 19.417 19.8613C19.3577 19.8802 19.3074 19.9206 19.276 19.9746C19.1747 20.1518 19.0508 20.3149 18.9077 20.4599L18.837 20.519C18.7039 20.6212 18.5356 20.7007 18.383 20.7007C18.2026 20.7007 18.1131 20.7832 18.0853 20.902C18.0537 21.0154 18.0328 21.1315 18.0229 21.2488C18.0014 21.3623 17.9687 21.4734 17.9252 21.5804L17.8741 21.6394C17.7726 21.7931 17.6937 21.943 17.5922 22.0732L17.5531 22.1361C17.4238 22.3057 17.2516 22.4397 17.0517 22.4874C16.8386 22.5592 16.6149 22.5937 16.3902 22.5896H16.2489C16.1943 22.5928 16.1413 22.6091 16.0943 22.6373C16.0473 22.6655 16.0078 22.7047 15.979 22.7516L15.9204 22.8538L15.858 22.9719L15.7287 23.1967C15.6811 23.2841 15.6168 23.3612 15.5396 23.4234C15.4623 23.4856 15.3735 23.5319 15.2784 23.5594C15.0685 23.611 14.8522 23.6309 14.6365 23.6184L14.4756 23.5987C14.3343 23.5987 14.2057 23.5594 14.0764 23.4965C13.975 23.4572 13.8336 23.4965 13.775 23.5987C13.6893 23.7232 13.5655 23.816 13.4225 23.863L13.121 23.9614C12.9139 24.0129 12.6975 24.0129 12.4903 23.9614L12.3295 23.9099C12.2285 23.9028 12.1313 23.8688 12.0476 23.8115C11.9564 23.7623 11.8531 23.7405 11.7499 23.7486L11.6169 23.7721C11.4169 23.7918 11.2373 23.7721 11.0568 23.7206L10.787 23.6578C10.6624 23.6186 10.5556 23.5363 10.4855 23.4254C10.4545 23.3703 10.411 23.3234 10.3587 23.2885C10.3063 23.2535 10.2465 23.2314 10.1841 23.224H9.86313C9.66318 23.1967 9.48352 23.1256 9.36174 22.9719L8.96259 22.5896L8.82127 22.4677L8.60177 22.3057L8.47248 22.2072C8.31624 22.0985 8.13624 22.0294 7.94779 22.0059L7.34868 21.9036C7.28628 21.9036 7.2472 21.884 7.18781 21.8718L6.95704 21.8204C6.85556 21.8007 6.75708 21.722 6.68717 21.619C6.62854 21.5206 6.51503 21.4767 6.41731 21.5206C6.21736 21.5993 6.05725 21.619 5.89638 21.6508H5.75506C5.49999 21.673 5.24357 21.6281 5.01087 21.5206C4.77183 21.4184 4.61172 21.2685 4.46288 21.0747C4.40231 20.9854 4.32475 20.9091 4.23468 20.8502C4.14461 20.7913 4.04383 20.751 3.93819 20.7317L3.66006 20.6726C3.45194 20.6293 3.25396 20.5463 3.07673 20.4281C2.87678 20.2858 2.7753 20.1563 2.69712 19.9943C2.61574 19.8377 2.56762 19.6657 2.5558 19.4893V19.4106C2.53626 19.2054 2.39493 19.0245 2.20701 18.9768C2.00345 18.917 1.81521 18.8134 1.65526 18.6732C1.58446 18.6057 1.52813 18.5244 1.48974 18.4342C1.45134 18.3439 1.43169 18.2467 1.432 18.1486L1.4553 17.7027C1.4553 17.5293 1.40419 17.3794 1.28316 17.2688C1.16214 17.147 1.08321 16.9971 1.08321 16.835L1.05164 16.4724C1.02762 16.2066 0.98441 15.943 0.922343 15.6835C0.86371 15.4511 0.953915 15.2179 1.14184 15.1082L1.2125 15.0567C1.26318 15.0223 1.29954 14.9704 1.31465 14.9108C1.32976 14.8512 1.32257 14.788 1.29444 14.7334L1.2125 14.635C1.13142 14.5423 1.02743 14.4728 0.911067 14.4336C0.83289 14.4101 0.813346 14.3314 0.813346 14.2799L0.911067 14.158C0.93867 14.1241 0.953752 14.0815 0.953752 14.0377C0.953752 13.9938 0.93867 13.9512 0.911067 13.9173C0.838082 13.8396 0.792629 13.7398 0.781774 13.6334L0.76223 12.9278C0.76223 12.7855 0.781774 12.6439 0.820863 12.5061C0.86371 12.3842 0.820863 12.2419 0.703597 12.1828L0.704348 12.1912ZM10.6254 10.858C10.696 10.7868 10.684 10.6566 10.6254 10.6059C10.5311 10.5318 10.4526 10.4394 10.3946 10.3341L10.2931 10.172C10.2254 10.0447 10.1381 9.92901 10.0345 9.82909L10.015 9.80941C9.91529 9.72803 9.8362 9.62398 9.7842 9.50583C9.75907 9.45923 9.7459 9.40705 9.7459 9.35403C9.7459 9.30101 9.75907 9.24883 9.7842 9.20224L9.84284 9.10382C9.90708 8.99375 9.94203 8.86884 9.94432 8.74118V8.69803C9.93917 8.59047 9.90399 8.48656 9.84284 8.39823C9.79863 8.30807 9.7658 8.21269 9.74511 8.11432V8.05527C9.73051 7.994 9.72997 7.93017 9.74351 7.86865C9.75706 7.80713 9.78434 7.74952 9.82329 7.70021C9.90523 7.56999 9.96461 7.4481 9.99543 7.2982V7.27473C10.0133 7.21974 10.0187 7.16142 10.0113 7.10405C10.0038 7.04668 9.9838 6.9917 9.95259 6.94313C9.92214 6.89577 9.90279 6.84205 9.89602 6.78604C9.88925 6.73003 9.89522 6.6732 9.9135 6.61986L9.98416 6.41848C10.0428 6.23678 10.1368 6.07553 10.254 5.9332L10.3953 5.7833L10.4968 5.66141L10.5555 5.60236C10.5851 5.56952 10.6031 5.5277 10.6067 5.48345C10.6102 5.4392 10.5991 5.39502 10.575 5.35782C10.522 5.2662 10.5013 5.1592 10.5164 5.05424L10.5359 4.91191C10.5675 4.71053 10.6374 4.5099 10.7667 4.34789L10.8058 4.30852C10.9546 4.10714 11.1463 3.97314 11.3658 3.90273L11.6402 3.80431C11.7574 3.76494 11.8401 3.63094 11.8401 3.50072C11.8401 3.33871 11.8912 3.19714 11.9807 3.06692L12.028 3.01544C12.1295 2.84586 12.2513 2.67249 12.3295 2.49079L12.4001 2.36057C12.4193 2.32984 12.4302 2.29462 12.4317 2.25837C12.4317 2.08878 12.3302 1.9351 12.1694 1.92677L11.7311 1.89497C11.4808 1.87529 11.2297 1.89497 10.9869 1.89497L10.1375 1.99718C10.0045 1.99718 9.90673 2.0956 9.8947 2.23793C9.89319 2.30503 9.87136 2.37006 9.83213 2.42432C9.7929 2.47858 9.73815 2.51947 9.67521 2.54151L9.31514 2.63993L9.21366 2.67173L8.91222 2.77393C8.80198 2.81034 8.70046 2.86946 8.61414 2.94753C8.52782 3.02561 8.45858 3.12093 8.41084 3.22742L8.33266 3.35764C8.22945 3.5812 8.06147 3.76806 7.85082 3.89364C7.65086 4.02386 7.54938 4.2366 7.52984 4.47735V4.57955C7.51029 4.78093 7.4479 4.98156 7.32988 5.12389L7.27877 5.20641C7.23902 5.25291 7.21313 5.30978 7.20409 5.37046C7.19505 5.43114 7.20321 5.49316 7.22765 5.54936C7.27877 5.66747 7.30959 5.80147 7.29831 5.93168V6.46769C7.29676 6.53165 7.27713 6.59383 7.24171 6.64694C7.20629 6.70004 7.15656 6.74186 7.09836 6.76749C7.03196 6.79168 6.97255 6.83207 6.92546 6.88505C6.87836 6.93803 6.84505 7.00195 6.8285 7.07108L6.77738 7.27246C6.75606 7.37058 6.76362 7.47284 6.79914 7.5667C6.83465 7.66056 6.89658 7.74195 6.97733 7.8009C7.1382 7.919 7.23968 8.1007 7.27877 8.32555V8.50725C7.31034 8.70863 7.42009 8.90925 7.59975 9.01221C7.78016 9.1341 7.92072 9.3158 7.9989 9.51718L8.05002 9.67919C8.08389 9.77902 8.14542 9.86699 8.22733 9.93272C8.30925 9.99846 8.40814 10.0392 8.51232 10.0502H8.57095C8.75136 10.0502 8.91147 10.1524 9.0137 10.3144C9.11143 10.4764 9.27229 10.5862 9.45195 10.618L9.73384 10.6967C9.90598 10.7482 10.0668 10.839 10.1961 10.9685L10.2157 10.992C10.2688 11.0315 10.3349 11.049 10.4005 11.041C10.466 11.033 10.526 11 10.5682 10.9488L10.6389 10.8701L10.6254 10.858ZM11.768 9.9313C11.8657 9.99035 11.9679 9.95855 12.007 9.86846L12.0386 9.82077C12.1092 9.67844 12.1994 9.53687 12.2972 9.41498L12.5009 9.11139C12.5279 9.11139 12.54 9.09171 12.5482 9.07202L12.791 8.74875C12.8925 8.65033 13.0105 8.57917 13.1511 8.57917C13.2155 8.57949 13.2786 8.56052 13.3322 8.52466C13.3859 8.4888 13.4278 8.43768 13.4525 8.37779C13.4916 8.23546 13.5502 8.10145 13.672 7.99168L13.7231 7.93263C13.8246 7.83042 13.9231 7.77894 14.0246 7.73125C14.1539 7.71156 14.2749 7.68809 14.3967 7.68809H14.6943C14.8154 7.68809 14.9176 7.6404 14.9762 7.53819C15.0349 7.43599 15.1251 7.36861 15.2266 7.31713L15.328 7.27397C15.4889 7.20659 15.6686 7.15587 15.849 7.13619L16.0489 7.1165C16.1699 7.1165 16.2992 7.1165 16.421 7.18388C16.5187 7.25505 16.6518 7.24672 16.7503 7.1642L16.8209 7.12483C16.9698 7.02263 17.1419 6.94313 17.3223 6.92345H17.3419C17.5343 6.88939 17.7302 6.87872 17.9252 6.89165H18.0229C18.2229 6.92345 18.395 6.99386 18.5243 7.14376L18.5559 7.18313C18.6573 7.28533 18.8144 7.36861 18.955 7.36861H19.1272C19.1783 7.36861 19.2249 7.34514 19.2564 7.29744C19.2904 7.26122 19.3364 7.23885 19.3857 7.23461H19.4872C19.6285 7.23461 19.7571 7.27397 19.8864 7.31713L20.0585 7.38829C20.2194 7.43599 20.3878 7.48671 20.5599 7.5064H20.6809C20.7591 7.5064 20.8102 7.4587 20.8102 7.38829C20.814 7.28881 20.7895 7.19033 20.7396 7.10439L20.6689 6.94238C20.5907 6.81216 20.5276 6.67059 20.4689 6.54037L20.4494 6.48889C20.4243 6.4423 20.4111 6.39012 20.4111 6.3371C20.4111 6.28407 20.4243 6.23189 20.4494 6.1853V6.13382C20.4593 6.09358 20.4545 6.05108 20.4359 6.0141C20.4173 5.97712 20.386 5.94813 20.3479 5.93244H20.2697C20.1114 5.88465 19.971 5.78994 19.8668 5.66065L19.7691 5.55845C19.6676 5.46003 19.6082 5.30634 19.5654 5.15644C19.518 5.02623 19.409 4.92402 19.2677 4.92402H18.8445C18.7711 4.91362 18.7005 4.88874 18.6366 4.85081C18.5728 4.81287 18.517 4.76263 18.4724 4.70295L18.4333 4.65147C18.3609 4.54602 18.3042 4.43048 18.2649 4.30852C18.2138 4.20632 18.1041 4.14651 18.0026 4.1783L17.8816 4.21767C17.6816 4.28884 17.4824 4.31609 17.2825 4.29641L17.1216 4.27672C16.9495 4.27672 16.7886 4.20556 16.6593 4.10714L16.5578 4.03597C16.4815 3.97676 16.3973 3.92883 16.3075 3.89364C16.2098 3.85428 16.1271 3.87396 16.0685 3.94513L16.0173 4.00418C15.9157 4.11074 15.7825 4.18138 15.6377 4.20556L15.0973 4.23736C14.995 4.24122 14.8983 4.28492 14.8274 4.35924C14.7498 4.42905 14.6551 4.47663 14.553 4.49703H14.5335C14.4358 4.49703 14.3335 4.5682 14.2358 4.63936V4.65904C14.1883 4.70769 14.1317 4.74634 14.0692 4.77272C14.0068 4.79911 13.9397 4.81271 13.872 4.81273L13.8329 4.83241C13.7119 4.83241 13.5938 4.83241 13.4728 4.86421H13.3518C13.1834 4.89147 13.0504 5.0338 13.0113 5.21549L12.9722 5.44791C12.94 5.60623 12.8715 5.75478 12.7722 5.88172C12.6708 6.00361 12.549 6.0831 12.4001 6.0831H12.2318C12.1303 6.10657 12.028 6.2171 12.0476 6.3352C12.0709 6.50857 12.0476 6.65847 12.0205 6.81216L11.9814 6.98174C11.9642 7.05358 11.9304 7.1203 11.8827 7.17647C11.835 7.23264 11.7748 7.27669 11.7071 7.30501L11.6484 7.33681H11.6289C11.5703 7.37618 11.5274 7.46703 11.5778 7.53819C11.6356 7.62808 11.6605 7.73539 11.6484 7.84178L11.6169 8.16505C11.6104 8.28175 11.577 8.39531 11.5191 8.49665C11.4904 8.54133 11.4734 8.59271 11.47 8.64587C11.4666 8.69903 11.4768 8.75218 11.4996 8.80023L11.5973 9.0213C11.6488 9.12094 11.6601 9.23674 11.6289 9.34457C11.5946 9.44181 11.5812 9.54531 11.5898 9.64815C11.5898 9.75036 11.6484 9.84954 11.7311 9.89269L11.768 9.9313ZM19.6849 17.2302C19.7864 17.3287 19.9352 17.368 20.057 17.2893L20.257 17.1591C20.3623 17.086 20.4398 16.9789 20.4765 16.8555V16.8358L20.5779 16.5322L20.6366 16.43L20.6794 16.3316L20.7185 16.2604C20.7368 16.2183 20.7643 16.1809 20.7989 16.1509C20.8335 16.1208 20.8744 16.099 20.9185 16.0871L20.9576 16.0674C21.0395 16.0477 21.0906 15.969 21.0906 15.8857C21.0906 15.7873 21.138 15.704 21.1883 15.6336L21.2703 15.5624L21.4702 15.302V15.2823C21.5287 15.1994 21.5699 15.1054 21.5912 15.006C21.6079 14.904 21.5929 14.7993 21.5484 14.7062L21.5289 14.663C21.4938 14.5798 21.47 14.4922 21.4582 14.4026L21.4311 14.1187L21.3996 13.8151C21.3996 13.7167 21.4387 13.6137 21.501 13.5153C21.5679 13.4328 21.6183 13.3298 21.6619 13.2314V13.192L21.6815 13.1723C21.701 13.0701 21.6499 12.9672 21.5604 12.9672C21.4589 12.9195 21.3605 12.8369 21.3297 12.7151L21.2981 12.656C21.2489 12.4787 21.2227 12.2957 21.2199 12.1117L21.2394 11.6067V11.5749C21.2387 11.4946 21.2067 11.4179 21.1503 11.3611C21.0939 11.3043 21.0177 11.2721 20.938 11.2713H20.9185C20.8256 11.275 20.7329 11.259 20.6465 11.2243C20.5602 11.1896 20.482 11.137 20.4171 11.0699L20.3389 10.9677L20.1352 10.7391L19.8766 10.4355C19.78 10.2949 19.6683 10.1654 19.5436 10.0494C19.4459 9.95098 19.2933 9.84802 19.1444 9.82834L18.9445 9.79654C18.8237 9.77144 18.7084 9.72477 18.604 9.65875C18.522 9.59592 18.404 9.6156 18.3221 9.69812L18.1928 9.84045L18.1304 9.87982C18.0597 9.8995 17.9936 9.86014 17.962 9.77761C17.9196 9.65236 17.9266 9.5155 17.9816 9.39529V9.33624C17.9816 9.26508 17.9229 9.21435 17.8605 9.23404H17.6997C17.5185 9.24077 17.338 9.20716 17.1712 9.13562L17.0697 9.09246C16.9674 9.04125 16.8548 9.01432 16.7405 9.01373C16.6347 9.01135 16.5304 9.03861 16.4391 9.09246L16.4 9.12426C16.279 9.20172 16.1402 9.24656 15.9971 9.25448H15.6678C15.5225 9.25298 15.3808 9.30011 15.2649 9.38848C15.1361 9.46635 14.9942 9.51972 14.8462 9.54595L14.5763 9.5891C14.4439 9.61723 14.3195 9.67521 14.2125 9.75869C14.1148 9.86089 13.9735 9.9207 13.8442 9.96007L13.793 9.98354C13.6287 10.0322 13.4871 10.1386 13.3939 10.2833L13.2729 10.4052C13.2385 10.452 13.22 10.5087 13.22 10.5669C13.22 10.6251 13.2385 10.6817 13.2729 10.7285C13.3315 10.8307 13.4533 10.8587 13.5743 10.8307L13.7231 10.7679C13.8013 10.7406 13.8953 10.7679 13.9622 10.8072C13.996 10.8347 14.0348 10.8551 14.0765 10.8673C14.1182 10.8796 14.1619 10.8833 14.205 10.8784L14.4553 10.8511C14.5966 10.8511 14.7372 10.8511 14.874 10.8905C15.0266 10.942 15.1559 10.9927 15.2769 11.0919C15.3908 11.185 15.5299 11.2415 15.6761 11.2539C15.8287 11.2736 15.9775 11.3054 16.1188 11.3561L16.2165 11.3758C16.318 11.4076 16.4007 11.4742 16.4594 11.5772C16.5105 11.6597 16.5571 11.7786 16.5571 11.8808V11.9126C16.5571 12.0307 16.6586 12.1139 16.7608 12.1139H16.8194C16.9803 12.1139 17.1524 12.1336 17.3208 12.1851L17.3915 12.2124C17.4995 12.2526 17.5933 12.3239 17.6613 12.4175C17.7433 12.5159 17.7906 12.6189 17.8222 12.7173L17.8538 12.8597C17.8808 13.0133 17.8929 13.1632 17.8929 13.3253V13.3767C17.8929 13.4752 17.9635 13.5781 18.0733 13.6175C18.1747 13.6372 18.2928 13.6803 18.4063 13.7394L18.4536 13.7591C18.5867 13.8378 18.716 13.9408 18.8137 14.0626L18.8648 14.1338C18.9979 14.2837 19.0648 14.4768 19.0648 14.666V14.7372C19.0648 14.8909 19.0377 15.0408 18.9866 15.1831C18.9475 15.305 18.9866 15.4473 19.1159 15.4867L19.1865 15.5382C19.3391 15.5972 19.4684 15.7078 19.5662 15.838C19.6676 15.9917 19.7075 16.1613 19.7075 16.3429V16.6465C19.6879 16.7487 19.6601 16.8282 19.6097 16.8986C19.5594 16.969 19.5586 17.072 19.6097 17.1432L19.6684 17.2416L19.6849 17.2302ZM13.2714 12.0609H13.2518C13.209 12.0609 13.1894 12.1124 13.2007 12.1631L13.2398 12.3645C13.2789 12.5265 13.2984 12.6878 13.3217 12.8498C13.3413 13.0118 13.4195 13.1496 13.5412 13.2518H13.5803C13.6539 13.3101 13.7143 13.3836 13.7575 13.4673C13.8006 13.5509 13.8256 13.6429 13.8306 13.7371V14.2421C13.8111 14.3405 13.8306 14.4435 13.893 14.526L13.9404 14.5737C14.0327 14.6892 14.0861 14.8313 14.093 14.9795L14.12 15.5352C14.12 15.6654 14.0419 15.7759 13.9201 15.7956L13.8224 15.8153C13.7517 15.8153 13.7209 15.8978 13.7209 15.969C13.7209 16.0477 13.7525 16.1385 13.7795 16.2211V16.2407C13.8111 16.3392 13.8224 16.4421 13.8111 16.5443L13.772 16.8161C13.7352 17.0135 13.6677 17.2039 13.572 17.3801L13.5014 17.502C13.4578 17.5903 13.3861 17.6612 13.2977 17.7034C13.2502 17.7231 13.2076 17.7531 13.1731 17.7913C13.1385 17.8296 13.1128 17.875 13.0977 17.9245L13.0195 18.2871C12.9627 18.5016 12.8743 18.7062 12.7572 18.8943H12.7377C12.618 19.0594 12.4645 19.1965 12.2874 19.2963L12.1664 19.3788L11.8649 19.5287C11.8169 19.551 11.7753 19.5851 11.7437 19.6278C11.7122 19.6705 11.6919 19.7205 11.6845 19.7732L11.6372 20.1048C11.6056 20.3062 11.5357 20.4796 11.3944 20.6098L11.2651 20.7635L11.1125 20.9134L10.9636 21.0754C10.8426 21.2177 10.6622 21.2768 10.4622 21.2488L10.1022 21.1776L9.76917 21.1345H9.67896C9.63988 21.1776 9.63161 21.2367 9.65942 21.2965C9.73008 21.4184 9.83983 21.5016 9.96085 21.5016L10.1804 21.541C10.2818 21.541 10.4036 21.5925 10.5013 21.6394C10.6028 21.7106 10.7013 21.7613 10.8223 21.7931H10.8419C10.9749 21.8446 11.1117 21.8522 11.2448 21.8446L11.3936 21.8211C11.5657 21.8014 11.7266 21.8211 11.8634 21.884L11.9844 21.9233C12.0356 21.943 12.1137 21.9233 12.1649 21.8718C12.2222 21.8155 12.2902 21.7712 12.3648 21.7416L12.4467 21.722C12.576 21.6826 12.7053 21.6591 12.8459 21.6591H12.9278C13.0451 21.6591 13.1586 21.6826 13.2571 21.7416L13.2962 21.7613C13.3668 21.7931 13.4488 21.7613 13.4999 21.7023C13.5269 21.6311 13.5976 21.5599 13.6683 21.5009L13.9186 21.3275L14.0794 21.2253L14.1614 21.1776C14.2687 21.1083 14.394 21.0727 14.5215 21.0754L14.8815 21.0436C14.9516 21.0347 15.0174 21.0052 15.071 20.9589C15.1246 20.9126 15.1635 20.8515 15.183 20.7832C15.222 20.6295 15.2807 20.4796 15.3829 20.3494C15.4844 20.2154 15.5829 20.1048 15.6843 20.0064C15.7971 19.9114 15.9368 19.8546 16.0835 19.8444H16.1654C16.2434 19.8287 16.3134 19.7856 16.3628 19.7228C16.4122 19.66 16.4379 19.5815 16.4353 19.5015V18.8231C16.4548 18.7247 16.4939 18.5907 16.5526 18.4915L16.7563 18.1879L16.8345 18.0857C16.8968 18.0342 16.9359 17.9676 17.0066 17.8843L17.1043 17.7541C17.1667 17.6519 17.1667 17.5217 17.0848 17.4309C16.9908 17.324 16.932 17.1904 16.9164 17.0485V17.0054C16.8926 16.8369 16.9018 16.6654 16.9434 16.5004V16.4527C16.9946 16.3187 17.0645 16.1885 17.1472 16.0666C17.1854 16.0195 17.2036 15.959 17.1977 15.8984C17.1917 15.8378 17.1622 15.7821 17.1156 15.7433L16.9434 15.5934C16.8059 15.4678 16.7205 15.2945 16.7044 15.1082L16.6849 14.9068C16.6849 14.8439 16.6849 14.7766 16.6653 14.7054L16.6458 14.5517C16.633 14.4698 16.6029 14.3915 16.5577 14.3222C16.5125 14.2529 16.453 14.1941 16.3834 14.1497L16.3128 14.13C16.2014 14.0598 16.1054 13.9673 16.0309 13.8582C15.9527 13.756 15.9136 13.6137 15.882 13.4721L15.8505 13.3025C15.8505 13.2397 15.8114 13.2003 15.7527 13.1723L15.2709 13.0186C15.1694 12.999 15.0709 12.9202 15.001 12.8491H14.9815C14.9191 12.7665 14.8206 12.7665 14.7582 12.8256L14.6605 12.9278C14.641 12.9596 14.6177 12.9672 14.5899 12.9596C14.5275 12.9596 14.4884 12.9081 14.5079 12.8574C14.5192 12.7784 14.5095 12.6978 14.48 12.6238C14.4504 12.5497 14.402 12.4848 14.3395 12.4357L14.2065 12.3335L13.9088 12.1321C13.8269 12.1003 13.7051 12.1321 13.666 12.2305L13.6269 12.2934C13.6269 12.313 13.5954 12.3206 13.5878 12.3327C13.545 12.3327 13.4864 12.3327 13.4864 12.2813L13.4548 12.2298C13.4277 12.1707 13.3571 12.1314 13.2939 12.1117L13.2714 12.0609ZM12.0694 13.0701L12.0183 13.0186C11.9672 12.9793 11.9168 12.9868 11.8657 13.0383C11.7936 13.1584 11.7394 13.2885 11.7048 13.4244V13.4441C11.6777 13.5743 11.556 13.6652 11.4349 13.6455H11.3177C11.2503 13.6469 11.1862 13.675 11.1393 13.7238C11.0924 13.7726 11.0666 13.838 11.0674 13.9059C11.0674 14.0876 11.005 14.2724 10.8952 14.4109L10.8366 14.4737C10.7313 14.6017 10.5913 14.6962 10.4337 14.7455L10.3555 14.7652C10.3044 14.7783 10.2582 14.8063 10.2226 14.8456C10.1871 14.8848 10.1638 14.9338 10.1555 14.9863C10.1555 15.0885 10.0932 15.1914 10.0142 15.2702L9.91274 15.3489C9.79172 15.4829 9.61131 15.5541 9.4309 15.5738L8.92951 15.6252C8.76865 15.6252 8.63184 15.7237 8.53036 15.8773C8.42888 16.0272 8.28004 16.1295 8.1312 16.1491L7.90794 16.1688C7.74095 16.1916 7.57129 16.1849 7.40656 16.1491L7.30884 16.1295L7.03446 16.0583C6.99229 16.043 6.94635 16.0416 6.90336 16.0544C6.86036 16.0672 6.82254 16.0935 6.79542 16.1295L6.69394 16.2597C6.6327 16.3315 6.55511 16.3873 6.4678 16.4224C6.38049 16.4574 6.28606 16.4707 6.19255 16.4611L5.54233 16.3823C5.44085 16.3823 5.36192 16.3308 5.27246 16.2801C5.17098 16.2211 5.10032 16.1499 5.02966 16.0787L4.77935 15.7751C4.75228 15.7555 4.70117 15.7433 4.65005 15.7555L4.50873 15.8145L3.94871 15.9568C3.84723 15.9886 3.71794 15.9568 3.61946 15.8978C3.51798 15.8153 3.39621 15.7956 3.27518 15.7956H3.14589C3.11653 15.8031 3.08898 15.8165 3.06487 15.835C3.04077 15.8535 3.02061 15.8766 3.0056 15.9031C2.99058 15.9296 2.98102 15.9589 2.97749 15.9892C2.97395 16.0195 2.97652 16.0502 2.98502 16.0795L3.02411 16.2809C3.05568 16.3831 3.04742 16.5019 2.99705 16.6041C2.94669 16.7063 2.95796 16.8055 3.02411 16.9077L3.0865 16.9865C3.16468 17.1083 3.28646 17.2113 3.38794 17.3097C3.48566 17.4119 3.58789 17.5111 3.66607 17.6451L3.81867 17.9169C3.85171 17.9843 3.9031 18.0409 3.96685 18.08C4.0306 18.1192 4.10408 18.1393 4.17873 18.138C4.32757 18.138 4.48017 18.1894 4.59743 18.2879L4.89887 18.5718C4.9808 18.6429 5.09882 18.6543 5.18076 18.5915L5.23187 18.5718C5.29051 18.5718 5.32959 18.6111 5.32959 18.674V18.7255C5.32959 18.8557 5.43107 18.9776 5.56037 19.0253L6.01064 19.1275C6.1715 19.1789 6.33162 19.2297 6.48421 19.3288H6.56239C6.58264 19.3288 6.60265 19.3244 6.62108 19.316C6.63952 19.3075 6.65597 19.2953 6.66933 19.2799C6.6827 19.2646 6.69267 19.2466 6.6986 19.2271C6.70453 19.2076 6.70627 19.1871 6.70371 19.1668V18.8155C6.70371 18.7133 6.7428 18.6104 6.82474 18.571L6.87585 18.5513C6.92321 18.571 6.97357 18.6104 6.95403 18.6535V18.8231C6.95403 18.9533 6.99312 19.0752 7.08332 19.1661C7.12599 19.2116 7.18092 19.2437 7.24139 19.2584C7.30186 19.273 7.36526 19.2696 7.42385 19.2486C7.54487 19.1971 7.66665 19.1858 7.79594 19.1971L8.16803 19.2168C8.34844 19.2365 8.51683 19.2168 8.66942 19.1456C8.84983 19.0866 8.99867 19.0033 9.13924 18.8935L9.19787 18.8542L9.49931 18.5824C9.59205 18.4862 9.71879 18.431 9.85186 18.4287H10.251C10.3525 18.4152 10.4469 18.3685 10.5196 18.296C10.5924 18.2234 10.6395 18.1288 10.6539 18.0267L10.693 17.8253C10.693 17.6913 10.7516 17.5732 10.8419 17.4702C10.9433 17.368 11.0418 17.3082 11.1433 17.2688L11.2643 17.2174C11.3492 17.18 11.4253 17.1248 11.4874 17.0554C11.5494 16.9861 11.5962 16.9043 11.6244 16.8154L11.683 16.5708C11.7341 16.3694 11.8356 16.1688 11.9844 16.0386L12.004 16.0151C12.125 15.9167 12.1453 15.7153 12.0664 15.5738L12.0348 15.5026C11.9997 15.446 11.9786 15.3818 11.9731 15.3153C11.9676 15.2488 11.9779 15.1819 12.0032 15.1203C12.0544 14.9779 12.1047 14.8561 12.1836 14.7342L12.2851 14.5918C12.3242 14.5131 12.3242 14.3905 12.2656 14.32C12.202 14.2405 12.1663 14.142 12.1641 14.0399L12.1446 13.8976V13.5546C12.1595 13.4419 12.1487 13.3272 12.113 13.2193L12.0739 13.1012L12.0694 13.0701ZM10.6366 12.3009V12.2737C10.6366 12.1715 10.5742 12.1117 10.4953 12.1117H10.233C10.14 12.1314 10.044 12.1314 9.95108 12.1117H9.50081C9.27004 12.1117 9.05054 12.0685 8.83104 12.0095L8.58824 11.9504L8.38828 11.8876L7.93801 11.7377C7.82244 11.7044 7.71521 11.6468 7.62345 11.5686C7.53169 11.4904 7.4575 11.3935 7.40581 11.2842L7.35469 11.182C7.28403 11.0321 7.13519 10.9496 6.98635 10.9806C6.81421 10.9806 6.64583 10.9806 6.48497 10.9019L6.36394 10.8504C6.13317 10.7482 5.96479 10.5468 5.96479 10.275L5.92194 10.0032C5.89488 9.86089 5.80467 9.73143 5.6829 9.67995C5.542 9.61469 5.40716 9.53691 5.27998 9.44753L5.23262 9.41573C5.07416 9.29364 4.95218 9.12992 4.88007 8.94256L4.86053 8.88351C4.80895 8.72004 4.8022 8.54556 4.84099 8.37854L4.86053 8.31571C4.89962 8.18549 4.91165 8.05527 4.91165 7.9137C4.91014 7.78755 4.85937 7.66706 4.77033 7.57832L4.629 7.4481C4.549 7.38301 4.48359 7.30159 4.43707 7.20921C4.39056 7.11682 4.364 7.01556 4.35914 6.91209C4.33621 6.6967 4.34278 6.47915 4.37869 6.26555V6.2065C4.37849 6.15315 4.35736 6.10205 4.3199 6.06432C4.28245 6.0266 4.2317 6.00532 4.17873 6.00512H4.14716C4.01787 6.00512 3.90812 6.08386 3.84573 6.2065C3.79586 6.34021 3.72139 6.46324 3.62623 6.56914L3.58714 6.62062L3.28571 6.92421C3.18423 7.02263 3.12484 7.17631 3.1053 7.32621C3.08653 7.47995 3.04577 7.63015 2.98427 7.77213L2.96473 7.82361C2.91634 7.94388 2.83661 8.04877 2.73395 8.1272C2.68468 8.16508 2.64412 8.21324 2.61506 8.26838C2.58599 8.32353 2.56911 8.38435 2.56557 8.44668L2.54603 8.91228C2.54603 9.11366 2.51446 9.31807 2.44455 9.51945L2.425 9.59819C2.39936 9.65915 2.39759 9.72762 2.42004 9.78984C2.44249 9.85207 2.48751 9.90342 2.54603 9.93357L2.96473 10.1153L3.00382 10.135C3.03539 10.135 3.04666 10.1546 3.05493 10.1864C3.0865 10.2258 3.05493 10.2849 3.02336 10.2849L2.92564 10.3363C2.86701 10.356 2.82416 10.4189 2.80461 10.49L2.78507 10.5884V10.6081L2.68359 11.1759C2.66405 11.2547 2.66405 11.3455 2.66405 11.4364C2.66411 11.4753 2.67564 11.5134 2.69718 11.5457C2.71873 11.578 2.74931 11.6032 2.78507 11.6181L3.00457 11.7203C3.10605 11.7793 3.22782 11.8505 3.306 11.9216L3.40748 12.0042C3.4388 12.0454 3.47887 12.079 3.52475 12.1026L3.5676 12.142C3.63663 12.2035 3.68584 12.2845 3.70892 12.3744L3.80664 12.8279C3.80664 12.9497 3.90812 13.0527 4.00659 13.08L4.16746 13.1314C4.16746 13.1314 4.19903 13.1314 4.21857 13.1511L4.41853 13.214C4.57939 13.2654 4.71996 13.3563 4.84174 13.4744C4.96276 13.5766 5.08078 13.7068 5.18226 13.8491L5.22135 13.8885C5.30328 13.9907 5.4213 14.0422 5.54233 14.0104C5.66335 13.9786 5.79264 13.971 5.92194 13.971H6.07453C6.17226 13.971 6.30531 13.9983 6.41506 14.0695C6.51278 14.1323 6.64583 14.1717 6.76385 14.2231H6.79542C6.85286 14.2463 6.91509 14.2548 6.9766 14.248C7.0381 14.2411 7.09696 14.2191 7.14797 14.1838C7.25041 14.1025 7.37764 14.0594 7.50804 14.0619L7.97785 14.0891C8.07933 14.0891 8.17781 14.0695 8.22817 13.9907H8.24772L8.41986 13.8287L8.47097 13.7772C8.51065 13.7315 8.55933 13.6945 8.61394 13.6687C8.66855 13.6429 8.72789 13.6288 8.78819 13.6273H9.24222C9.35949 13.6273 9.473 13.5251 9.52035 13.4259C9.54668 13.3732 9.58471 13.3272 9.63151 13.2916C9.67831 13.2561 9.73261 13.2318 9.79022 13.2208L9.99393 13.1814C10.0721 13.1814 10.1428 13.1102 10.1743 13.0194C10.1983 12.9257 10.2503 12.8417 10.3232 12.7786L10.484 12.6166C10.5758 12.5314 10.6364 12.4175 10.6562 12.2934L10.6366 12.3009Z" fill="#F5509E"/>
</svg>
