<svg width="51" height="50" viewBox="0 0 51 50" fill="none" xmlns="http://www.w3.org/2000/svg">
<path fill-rule="evenodd" clip-rule="evenodd" d="M42.6091 43.2326C38.0837 47.4295 31.9953 50 25.2994 50C11.3269 50 0 38.8071 0 25C0 11.1929 11.3269 0 25.2994 0C32.1781 0 38.4156 2.71273 42.9761 7.11462C42.3035 6.7623 41.5348 6.56251 40.7186 6.56251C38.0729 6.56251 35.9281 8.66117 35.9281 11.25C35.9281 12.1944 36.2136 13.0736 36.7046 13.8094C33.7999 10.8789 29.7628 9.0625 25.2994 9.0625C16.4529 9.0625 9.28143 16.198 9.28143 25C9.28143 33.802 16.4529 40.9375 25.2994 40.9375C29.6291 40.9375 33.5576 39.2283 36.4405 36.4509C35.9279 37.1972 35.6288 38.0957 35.6288 39.0625C35.6288 41.6513 37.7735 43.75 40.4192 43.75C41.2082 43.75 41.9527 43.5633 42.6091 43.2326Z" fill="#1C1C1C"/>
<path d="M42.4129 9C40.1191 9 38.2595 10.8059 38.2595 13.0336C38.2595 14.2754 38.6175 15.1849 39.7461 16.1261C40.7256 17.0672 42.8023 19.6218 42.8023 24.8655C42.8023 30.7836 38.7787 34.6807 38.7787 34.6807L44.4896 40.1933C44.4896 40.1933 50.7197 34.8151 50.9792 25.4034C51.3686 17.2017 46.1305 11.233 46.1305 11.233C44.4896 9.40336 44.0405 9 42.4129 9Z" fill="#F5509E"/>
<ellipse cx="42.1534" cy="36.9664" rx="4.15338" ry="4.03361" fill="#F5509E"/>
</svg>
